<svg width="800" height="800" viewBox="0 0 800 800" fill="none" xmlns="http://www.w3.org/2000/svg">
<path d="M233.333 377.566C233.333 348.266 241.767 319.6 257.733 295.066C273.47 270.772 296.087 251.718 322.7 240.333C349.084 229.087 378.265 226.134 406.367 231.866C434.605 237.659 460.44 251.831 480.5 272.533C500.773 293.489 514.5 319.899 520 348.533C525.592 377.328 522.733 407.127 511.767 434.333C500.941 461.322 482.387 484.514 458.433 501C434.585 516.661 406.522 524.663 378 523.933C359.046 524.261 340.221 520.764 322.649 513.651C305.078 506.538 289.121 495.954 275.733 482.533C248.432 454.425 233.214 416.75 233.333 377.566Z" stroke="#5310AE" stroke-width="50" stroke-linecap="round" stroke-linejoin="round"/>
<path d="M462.5 255.2C460.222 257.564 458.431 260.353 457.231 263.409C456.03 266.465 455.443 269.727 455.504 273.01C455.626 279.639 458.376 285.949 463.15 290.55C467.924 295.152 474.33 297.668 480.96 297.546C484.242 297.486 487.481 296.78 490.49 295.468C493.5 294.156 496.222 292.264 498.5 289.9L462.5 255.2ZM584.267 200.9C588.635 196.085 590.955 189.757 590.735 183.259C590.516 176.762 587.774 170.605 583.091 166.096C578.408 161.586 572.152 159.078 565.651 159.104C559.149 159.13 552.914 161.687 548.267 166.233L584.267 200.9ZM403.133 523.9C403.133 517.27 400.499 510.911 395.811 506.222C391.123 501.534 384.764 498.9 378.133 498.9C371.503 498.9 365.144 501.534 360.456 506.222C355.767 510.911 353.133 517.27 353.133 523.9H403.133ZM353.133 589.767C353.133 596.397 355.767 602.756 360.456 607.444C365.144 612.133 371.503 614.767 378.133 614.767C384.764 614.767 391.123 612.133 395.811 607.444C400.499 602.756 403.133 596.397 403.133 589.767H353.133ZM436.033 614.767C442.664 614.767 449.023 612.133 453.711 607.444C458.399 602.756 461.033 596.397 461.033 589.767C461.033 583.136 458.399 576.777 453.711 572.089C449.023 567.401 442.664 564.767 436.033 564.767V614.767ZM378.133 564.767C371.503 564.767 365.144 567.401 360.456 572.089C355.767 576.777 353.133 583.136 353.133 589.767C353.133 596.397 355.767 602.756 360.456 607.444C365.144 612.133 371.503 614.767 378.133 614.767V564.767ZM353.133 649.767C353.133 656.397 355.767 662.756 360.456 667.444C365.144 672.133 371.503 674.767 378.133 674.767C384.764 674.767 391.123 672.133 395.811 667.444C400.499 662.756 403.133 656.397 403.133 649.767H353.133ZM403.133 589.767C403.133 583.136 400.499 576.777 395.811 572.089C391.123 567.401 384.764 564.767 378.133 564.767C371.503 564.767 365.144 567.401 360.456 572.089C355.767 576.777 353.133 583.136 353.133 589.767H403.133ZM378.133 614.767C384.764 614.767 391.123 612.133 395.811 607.444C400.499 602.756 403.133 596.397 403.133 589.767C403.133 583.136 400.499 576.777 395.811 572.089C391.123 567.401 384.764 564.767 378.133 564.767V614.767ZM320.2 564.767C313.57 564.767 307.211 567.401 302.522 572.089C297.834 576.777 295.2 583.136 295.2 589.767C295.2 596.397 297.834 602.756 302.522 607.444C307.211 612.133 313.57 614.767 320.2 614.767V564.767ZM498.533 158.1C491.903 158.06 485.528 160.656 480.812 165.316C476.095 169.977 473.423 176.32 473.383 182.95C473.344 189.58 475.939 195.955 480.6 200.672C485.26 205.388 491.603 208.06 498.233 208.1L498.533 158.1ZM566.1 208.567C569.383 208.589 572.638 207.964 575.68 206.727C578.721 205.491 581.49 203.668 583.827 201.362C586.163 199.056 588.023 196.313 589.3 193.288C590.577 190.263 591.245 187.016 591.267 183.733C591.289 180.45 590.664 177.195 589.427 174.154C588.191 171.112 586.368 168.344 584.062 166.007C581.756 163.67 579.013 161.81 575.988 160.534C572.963 159.257 569.716 158.589 566.433 158.567L566.1 208.567ZM591.267 183.4C591.227 176.77 588.555 170.427 583.838 165.766C579.122 161.106 572.747 158.51 566.117 158.55C559.486 158.59 553.143 161.262 548.483 165.978C543.823 170.695 541.227 177.07 541.267 183.7L591.267 183.4ZM541.667 254.067C541.684 257.35 542.348 260.597 543.621 263.624C544.893 266.65 546.749 269.396 549.083 271.705C551.417 274.014 554.183 275.841 557.223 277.081C560.263 278.322 563.517 278.951 566.8 278.933C570.083 278.916 573.331 278.252 576.357 276.979C579.383 275.707 582.13 273.851 584.439 271.517C586.748 269.183 588.574 266.417 589.815 263.377C591.055 260.337 591.684 257.083 591.667 253.8L541.667 254.067ZM498.5 289.9L584.267 200.9L548.267 166.233L462.5 255.2L498.5 289.9ZM353.133 523.9V589.767H403.133V523.9H353.133ZM436.033 564.767H378.133V614.767H436.033V564.767ZM403.133 649.767V589.767H353.133V649.767H403.133ZM378.133 564.767H320.2V614.767H378.133V564.767ZM498.233 208.1L566.1 208.567L566.433 158.567L498.567 158.133L498.233 208.1ZM541.267 183.7L541.667 254.067L591.667 253.8L591.267 183.4L541.267 183.7Z" fill="#5310AE"/>
</svg>
