<svg width="800" height="800" viewBox="0 0 800 800" fill="none" xmlns="http://www.w3.org/2000/svg">
<path d="M233.333 331.4C233.372 298.813 243.159 266.982 261.433 240C279.834 212.808 305.856 191.657 336.233 179.2C366.675 166.704 400.115 163.422 432.405 169.763C464.695 176.103 494.412 191.787 517.867 214.867C535.235 232.017 548.547 252.835 556.828 275.796C565.109 298.757 568.15 323.279 565.727 347.567C563.305 371.855 555.481 395.294 542.828 416.167C530.175 437.04 513.013 454.818 492.6 468.2C464.933 485.667 432.7 494.534 400 493.734C356.187 494.625 313.805 478.121 282.133 447.834C266.681 432.635 254.407 414.512 246.029 394.523C237.651 374.533 233.335 353.075 233.333 331.4Z" stroke="#5310AE" stroke-width="50" stroke-linecap="round" stroke-linejoin="round"/>
<path d="M425 493.767C425 487.136 422.366 480.777 417.678 476.089C412.989 471.401 406.63 468.767 400 468.767C393.37 468.767 387.011 471.401 382.322 476.089C377.634 480.777 375 487.136 375 493.767H425ZM375 566.667C375 573.297 377.634 579.656 382.322 584.344C387.011 589.033 393.37 591.667 400 591.667C406.63 591.667 412.989 589.033 417.678 584.344C422.366 579.656 425 573.297 425 566.667H375ZM466.667 591.667C473.297 591.667 479.656 589.033 484.344 584.344C489.033 579.656 491.667 573.297 491.667 566.667C491.667 560.036 489.033 553.677 484.344 548.989C479.656 544.301 473.297 541.667 466.667 541.667V591.667ZM400 541.667C393.37 541.667 387.011 544.301 382.322 548.989C377.634 553.677 375 560.036 375 566.667C375 573.297 377.634 579.656 382.322 584.344C387.011 589.033 393.37 591.667 400 591.667V541.667ZM375 633.333C375 639.964 377.634 646.323 382.322 651.011C387.011 655.699 393.37 658.333 400 658.333C406.63 658.333 412.989 655.699 417.678 651.011C422.366 646.323 425 639.964 425 633.333H375ZM425 566.667C425 560.036 422.366 553.677 417.678 548.989C412.989 544.301 406.63 541.667 400 541.667C393.37 541.667 387.011 544.301 382.322 548.989C377.634 553.677 375 560.036 375 566.667H425ZM400 591.667C406.63 591.667 412.989 589.033 417.678 584.344C422.366 579.656 425 573.297 425 566.667C425 560.036 422.366 553.677 417.678 548.989C412.989 544.301 406.63 541.667 400 541.667V591.667ZM333.333 541.667C326.703 541.667 320.344 544.301 315.656 548.989C310.967 553.677 308.333 560.036 308.333 566.667C308.333 573.297 310.967 579.656 315.656 584.344C320.344 589.033 326.703 591.667 333.333 591.667V541.667ZM375 493.767V566.667H425V493.767H375ZM466.667 541.667H400V591.667H466.667V541.667ZM425 633.333V566.667H375V633.333H425ZM400 541.667H333.333V591.667H400V541.667Z" fill="#5310AE"/>
</svg>
