<svg width="800" height="800" viewBox="0 0 800 800" fill="none" xmlns="http://www.w3.org/2000/svg">
<path d="M518.767 537.334C495.701 560.334 466.286 575.912 434.3 582.067C402.056 588.287 368.693 584.843 338.4 572.167C308.045 559.47 282.087 538.14 263.747 510.822C245.407 483.504 235.492 451.403 235.233 418.5C235.08 394.092 240.387 369.959 250.767 347.868C261.147 325.776 276.337 306.286 295.224 290.825C314.111 275.364 336.218 264.323 359.924 258.511C383.63 252.698 408.337 252.262 432.233 257.234C464.118 264.51 493.157 281.006 515.733 304.667C547.349 335.015 565.651 376.654 566.633 420.467C566.811 442.149 562.67 463.649 554.452 483.714C546.234 503.779 534.103 522.006 518.767 537.334Z" stroke="#5310AE" stroke-width="50" stroke-linecap="round" stroke-linejoin="round"/>
<path d="M498.067 287C495.61 289.289 493.64 292.049 492.274 295.116C490.908 298.183 490.173 301.493 490.114 304.85C490.054 308.206 490.672 311.541 491.929 314.654C493.187 317.767 495.058 320.594 497.432 322.968C499.806 325.342 502.634 327.214 505.747 328.471C508.86 329.729 512.194 330.346 515.551 330.287C518.908 330.228 522.218 329.493 525.285 328.126C528.351 326.76 531.111 324.79 533.4 322.334L498.067 287ZM632.1 223.667C636.794 218.982 639.435 212.623 639.441 205.991C639.448 199.358 636.819 192.995 632.133 188.3C627.448 183.606 621.089 180.965 614.457 180.959C607.824 180.953 601.461 183.582 596.767 188.267L632.1 223.667ZM536.467 180.5C529.836 180.461 523.462 183.056 518.745 187.717C514.029 192.377 511.356 198.72 511.317 205.35C511.277 211.981 513.873 218.356 518.533 223.072C523.193 227.789 529.536 230.461 536.167 230.5L536.467 180.5ZM614.3 230.967C617.583 230.987 620.838 230.36 623.878 229.122C626.919 227.883 629.686 226.058 632.022 223.751C634.357 221.443 636.215 218.698 637.49 215.673C638.764 212.647 639.43 209.4 639.45 206.117C639.47 202.834 638.843 199.579 637.604 196.539C636.366 193.498 634.541 190.731 632.234 188.396C629.926 186.06 627.181 184.202 624.156 182.928C621.13 181.653 617.883 180.987 614.6 180.967L614.3 230.967ZM639.433 205.8C639.389 199.17 636.713 192.829 631.993 188.172C627.274 183.514 620.897 180.923 614.267 180.967C607.636 181.011 601.295 183.688 596.638 188.407C591.981 193.127 589.389 199.503 589.433 206.134L639.433 205.8ZM589.9 284.234C589.944 290.864 592.621 297.205 597.34 301.863C599.677 304.169 602.445 305.992 605.487 307.228C608.528 308.464 611.784 309.089 615.067 309.067C618.35 309.045 621.596 308.377 624.621 307.1C627.646 305.824 630.39 303.964 632.696 301.627C635.002 299.29 636.825 296.522 638.061 293.48C639.297 290.439 639.922 287.184 639.9 283.9L589.9 284.234ZM533.4 322.334L632.133 223.667L596.767 188.267L498.067 287L533.4 322.334ZM536.167 230.5L614.3 230.967L614.6 180.967L536.467 180.5L536.167 230.5ZM589.433 206.134L589.9 284.234L639.9 283.9L639.433 205.8L589.433 206.134Z" fill="#5310AE"/>
</svg>
